<svg width="105" height="16" viewBox="0 0 105 16" fill="none" xmlns="http://www.w3.org/2000/svg">
<path d="M1.0963 12.5V3.51036H4.3465C5.75234 3.51036 6.86153 4.47768 6.86153 5.80614C6.86153 6.67028 6.43591 7.34095 5.71364 7.6118C6.90023 7.83106 7.51931 8.721 7.51931 9.84309C7.51931 11.365 6.35853 12.5 4.78502 12.5H1.0963ZM2.7085 7.13459H4.12724C4.81081 7.13459 5.28802 6.67028 5.28802 6.0254C5.28802 5.43211 4.81081 4.96779 4.14013 4.96779H2.7085V7.13459ZM2.7085 11.0426H4.51417C5.32672 11.0426 5.92001 10.488 5.92001 9.75281C5.92001 9.03054 5.33961 8.48884 4.50127 8.48884H2.7085V11.0426ZM10.7863 12.5903L8.11653 5.9996H9.70294L11.5989 10.7459L13.5464 5.9996H15.1328L11.3151 15.0021H9.74163L10.7863 12.5903Z" fill="black" style="fill:black;fill:black;fill-opacity:1;"/>
<rect x="20.0305" y="0.0397644" width="15.9205" height="15.9205" rx="4.97515" fill="#000F93" style="fill:#000F93;fill:color(display-p3 0.0000 0.0575 0.5750);fill-opacity:1;"/>
<path d="M26.4088 8.06373C26.2663 7.63629 26.1951 7.42257 26.2378 7.25246C26.2752 7.10354 26.3682 6.97458 26.4976 6.89202C26.6455 6.7977 26.8708 6.7977 27.3213 6.7977H28.9005C29.1498 6.7977 29.2745 6.7977 29.3805 6.83941C29.4742 6.87625 29.5571 6.93601 29.6217 7.01321C29.6948 7.10064 29.7342 7.21889 29.813 7.45539L31.1757 11.5433C31.3182 11.9708 31.3894 12.1845 31.3467 12.3546C31.3093 12.5035 31.2163 12.6325 31.0869 12.715C30.939 12.8093 30.7137 12.8093 30.2632 12.8093H27.9907L26.4088 8.06373Z" fill="url(#paint0_linear_18_612)" style=""/>
<path fill-rule="evenodd" clip-rule="evenodd" d="M27.9908 10.4047C29.9829 10.4047 31.5978 8.78978 31.5978 6.79769C31.5978 4.80561 29.9829 3.1907 27.9908 3.1907H25.3457C25.009 3.1907 24.8406 3.1907 24.712 3.25623C24.5989 3.31386 24.5069 3.40583 24.4493 3.51895C24.3838 3.64754 24.3838 3.81588 24.3838 4.15257V6.79769V11.8475C24.3838 12.1842 24.3838 12.3525 24.4493 12.4811C24.5069 12.5942 24.5989 12.6862 24.712 12.7438C24.8406 12.8093 25.009 12.8093 25.3457 12.8093H27.9908V10.4047Z" fill="url(#paint1_angular_18_612)" style=""/>
<path d="M41.0777 12.5V3.51036H44.573C46.1723 3.51036 47.4879 4.73563 47.4879 6.36073C47.4879 7.54732 46.8172 8.51464 45.8499 8.91446L48.0296 12.5H46.211L44.2892 9.30139H44.2635H42.6899V12.5H41.0777ZM42.6899 7.85686H44.4053C45.2824 7.85686 45.8886 7.25067 45.8886 6.38653C45.8886 5.56108 45.3082 4.96779 44.5343 4.96779H42.6899V7.85686ZM48.5203 9.2498C48.5203 7.32806 49.939 5.85773 51.7705 5.85773C52.8668 5.85773 53.6277 6.33494 53.847 6.94113V5.9996H55.3947V12.5H53.847V11.5585C53.6277 12.1647 52.8668 12.6419 51.7705 12.6419C49.939 12.6419 48.5203 11.1715 48.5203 9.2498ZM50.0551 9.2498C50.0551 10.3848 50.8805 11.236 51.9768 11.236C53.0989 11.236 53.9631 10.3848 53.9631 9.2498C53.9631 8.11481 53.0989 7.26357 51.9768 7.26357C50.8805 7.26357 50.0551 8.11481 50.0551 9.2498ZM57.7145 5.23864C57.2115 5.23864 56.7858 4.83882 56.7858 4.32291C56.7858 3.80701 57.2115 3.40718 57.7145 3.40718C58.2046 3.40718 58.6302 3.80701 58.6302 4.32291C58.6302 4.83882 58.2046 5.23864 57.7145 5.23864ZM56.9406 12.5V5.9996H58.4883V12.5H56.9406ZM60.0642 12.5V5.9996H61.5991V6.92823C61.8957 6.30914 62.6309 5.87063 63.5724 5.87063C65.133 5.87063 66.0358 6.87664 66.0358 8.47594V12.5H64.4881V8.6952C64.4881 7.81817 63.9851 7.25067 63.1081 7.25067C62.231 7.25067 61.5991 7.86976 61.5991 8.75969V12.5H60.0642ZM67.8554 12.5V3.51036H73.2982V4.96779H69.4676V7.22487H72.9629V8.68231H69.4676V12.5H67.8554ZM74.0762 9.2498C74.0762 7.30226 75.6497 5.80614 77.623 5.80614C79.5835 5.80614 81.1699 7.30226 81.1699 9.2498C81.1699 11.1973 79.5835 12.6935 77.623 12.6935C75.6497 12.6935 74.0762 11.1973 74.0762 9.2498ZM75.611 9.2498C75.611 10.3977 76.4752 11.2876 77.623 11.2876C78.758 11.2876 79.6351 10.3977 79.6351 9.2498C79.6351 8.10191 78.758 7.21198 77.623 7.21198C76.4752 7.21198 75.611 8.10191 75.611 9.2498ZM82.4587 12.5V5.9996H83.9936V6.96692C84.3031 6.29625 84.9996 5.87063 85.9282 5.87063C86.0959 5.87063 86.328 5.89642 86.3925 5.90932V7.40544C86.2119 7.36675 85.9927 7.34095 85.7476 7.34095C84.6771 7.34095 83.9936 8.01163 83.9936 9.08213V12.5H82.4587ZM86.9864 9.30139V9.2498C86.9864 7.16039 88.4438 5.81903 90.3914 5.81903C92.326 5.81903 93.6029 7.27646 93.6029 9.09503C93.6029 9.09503 93.6029 9.37878 93.5771 9.63673H88.5212C88.5728 10.6685 89.3338 11.3392 90.4817 11.3392C91.2684 11.3392 91.7456 11.0813 92.2357 10.5912L93.1644 11.494C92.326 12.3839 91.4103 12.6548 90.4301 12.6548C88.3922 12.6548 86.9864 11.3392 86.9864 9.30139ZM88.5599 8.55333H92.0294C92.0294 7.77947 91.2942 7.13459 90.3914 7.13459C89.4241 7.13459 88.6244 7.76657 88.5599 8.55333ZM94.3117 11.3521L95.3049 10.5138C95.5757 10.9523 96.1819 11.3263 97.0202 11.3263C97.9102 11.3263 98.181 10.9523 98.181 10.6169C98.181 10.0752 97.4072 9.94627 96.4012 9.58514C95.4467 9.2369 94.8019 8.74679 94.8019 7.75368C94.8019 6.50261 95.8595 5.80614 97.0976 5.80614C98.181 5.80614 98.9033 6.21886 99.3547 6.78636L98.4906 7.70209C98.2197 7.37965 97.7812 7.13459 97.0718 7.13459C96.5817 7.13459 96.2851 7.36675 96.2851 7.71498C96.2851 8.20509 96.8268 8.26958 97.9231 8.66941C99.1226 9.09503 99.6643 9.66252 99.6643 10.6041C99.6643 11.7261 98.8517 12.6677 96.9945 12.6677C95.6402 12.6677 94.7116 12.126 94.3117 11.3521ZM101.261 12.5V7.40544H100.423V5.9996H101.261V3.51036H102.809V5.9996H104.215V7.40544H102.809V12.5H101.261Z" fill="black" style="fill:black;fill:black;fill-opacity:1;"/>
<defs>
<linearGradient id="paint0_linear_18_612" x1="31.5977" y1="12.8093" x2="27.9907" y2="3.19071" gradientUnits="userSpaceOnUse">
<stop stop-color="#FFDE9F" style="stop-color:#FFDE9F;stop-color:color(display-p3 1.0000 0.8725 0.6250);stop-opacity:1;"/>
<stop offset="0.343685" stop-color="#FFC148" style="stop-color:#FFC148;stop-color:color(display-p3 1.0000 0.7563 0.2833);stop-opacity:1;"/>
<stop offset="1" stop-color="white" style="stop-color:white;stop-color:white;stop-opacity:1;"/>
</linearGradient>
<radialGradient id="paint1_angular_18_612" cx="0" cy="0" r="1" gradientUnits="userSpaceOnUse" gradientTransform="translate(27.9908 6.79769) rotate(90) scale(3.60699)">
<stop stop-color="#FFDE9F" style="stop-color:#FFDE9F;stop-color:color(display-p3 1.0000 0.8725 0.6250);stop-opacity:1;"/>
<stop offset="1" stop-color="white" style="stop-color:white;stop-color:white;stop-opacity:1;"/>
</radialGradient>
</defs>
</svg>
