<svg width="100%" height="24" preserveAspectRatio="xMidYMid meet" viewBox="0 0 517 79" fill="none" xmlns="http://www.w3.org/2000/svg">
    <path d="M5.43994 61.5V16.892H21.5679C28.5439 16.892 34.0479 21.692 34.0479 28.284C34.0479 32.572 31.9359 35.9 28.3519 37.244C34.2399 38.332 37.3119 42.748 37.3119 48.316C37.3119 55.868 31.5519 61.5 23.7439 61.5H5.43994ZM13.4399 34.876H20.4799C23.8719 34.876 26.2399 32.572 26.2399 29.372C26.2399 26.428 23.8719 24.124 20.5439 24.124H13.4399V34.876ZM13.4399 54.268H22.3999C26.4319 54.268 29.3759 51.516 29.3759 47.868C29.3759 44.284 26.4959 41.596 22.3359 41.596H13.4399V54.268Z"
          fill="#000"/>
    <path d="M53.5234 61.948L40.2754 29.244H48.1474L57.5554 52.796L67.2194 29.244H75.0914L56.1474 73.916H48.3394L53.5234 61.948Z"
          fill="#000"/>
    <path d="M97 39.5C97 25.6737 97 18.7606 99.6908 13.4796C102.058 8.83436 105.834 5.05765 110.48 2.69078C115.761 0 122.674 0 136.5 0C150.326 0 157.239 0 162.52 2.69078C167.166 5.05765 170.942 8.83436 173.309 13.4796C176 18.7606 176 25.6737 176 39.5C176 53.3263 176 60.2394 173.309 65.5204C170.942 70.1656 167.166 73.9424 162.52 76.3092C157.239 79 150.326 79 136.5 79C122.674 79 115.761 79 110.48 76.3092C105.834 73.9424 102.058 70.1656 99.6908 65.5204C97 60.2394 97 53.3263 97 39.5Z"
          fill="#000F93"/>
    <path d="M128.651 39.8161C127.944 37.6951 127.59 36.6346 127.802 35.7904C127.988 35.0515 128.449 34.4116 129.091 34.0019C129.825 33.5338 130.943 33.5338 133.179 33.5338H141.015C142.252 33.5338 142.87 33.5338 143.397 33.7408C143.861 33.9236 144.273 34.2202 144.593 34.6032C144.956 35.0371 145.152 35.6239 145.543 36.7974L152.304 57.0823C153.011 59.2033 153.365 60.2639 153.153 61.108C152.967 61.8469 152.506 62.4869 151.864 62.8965C151.13 63.3646 150.012 63.3646 147.776 63.3646H136.5L128.651 39.8161Z"
          fill="url(#paint0_linear_18_387)"/>
    <path d="M136.5 51.4323C146.385 51.4323 154.398 43.4189 154.398 33.5339C154.398 23.6488 146.385 15.6354 136.5 15.6354H123.374C121.704 15.6354 120.868 15.6354 120.23 15.9606C119.669 16.2466 119.213 16.7029 118.927 17.2642C118.602 17.9023 118.602 18.7377 118.602 20.4084V58.5917C118.602 60.2624 118.602 61.0977 118.927 61.7358C119.213 62.2971 119.669 62.7535 120.23 63.0395C120.868 63.3646 121.704 63.3646 123.374 63.3646H136.5V51.4323Z"
          fill="url(#paint1_linear_18_387)"/>
    <path d="M136.5 51.4323C146.385 51.4323 154.398 43.4189 154.398 33.5339C154.398 23.6488 146.385 15.6354 136.5 15.6354H123.374C121.704 15.6354 120.868 15.6354 120.23 15.9606C119.669 16.2466 119.213 16.7029 118.927 17.2642C118.602 17.9023 118.602 18.7377 118.602 20.4084V58.5917C118.602 60.2624 118.602 61.0977 118.927 61.7358C119.213 62.2971 119.669 62.7535 120.23 63.0395C120.868 63.3646 121.704 63.3646 123.374 63.3646H136.5V51.4323Z"
          fill="url(#paint2_linear_18_387)"/>
    <path d="M136.5 51.4323C146.385 51.4323 154.398 43.4189 154.398 33.5339C154.398 23.6488 146.385 15.6354 136.5 15.6354H123.374C121.704 15.6354 120.868 15.6354 120.23 15.9606C119.669 16.2466 119.213 16.7029 118.927 17.2642C118.602 17.9023 118.602 18.7377 118.602 20.4084V58.5917C118.602 60.2624 118.602 61.0977 118.927 61.7358C119.213 62.2971 119.669 62.7535 120.23 63.0395C120.868 63.3646 121.704 63.3646 123.374 63.3646H136.5V51.4323Z"
          fill="url(#paint3_linear_18_387)"/>
    <path d="M201.44 61.5V16.892H218.784C226.72 16.892 233.248 22.972 233.248 31.036C233.248 36.924 229.92 41.724 225.12 43.708L235.936 61.5H226.912L217.376 45.628H217.248H209.44V61.5H201.44ZM209.44 38.46H217.952C222.304 38.46 225.312 35.452 225.312 31.164C225.312 27.068 222.432 24.124 218.592 24.124H209.44V38.46Z"
          fill="#000"/>
    <path d="M238.371 45.372C238.371 35.836 245.411 28.54 254.499 28.54C259.939 28.54 263.715 30.908 264.803 33.916V29.244H272.483V61.5H264.803V56.828C263.715 59.836 259.939 62.204 254.499 62.204C245.411 62.204 238.371 54.908 238.371 45.372ZM245.987 45.372C245.987 51.004 250.083 55.228 255.523 55.228C261.091 55.228 265.379 51.004 265.379 45.372C265.379 39.74 261.091 35.516 255.523 35.516C250.083 35.516 245.987 39.74 245.987 45.372Z"
          fill="#000"/>
    <path d="M283.994 25.468C281.498 25.468 279.386 23.484 279.386 20.924C279.386 18.364 281.498 16.38 283.994 16.38C286.426 16.38 288.538 18.364 288.538 20.924C288.538 23.484 286.426 25.468 283.994 25.468ZM280.154 61.5V29.244H287.834V61.5H280.154Z"
          fill="#000"/>
    <path d="M295.654 61.5V29.244H303.27V33.852C304.742 30.78 308.39 28.604 313.062 28.604C320.806 28.604 325.286 33.596 325.286 41.532V61.5H317.606V42.62C317.606 38.268 315.11 35.452 310.758 35.452C306.406 35.452 303.27 38.524 303.27 42.94V61.5H295.654Z"
          fill="#000"/>
    <path d="M334.315 61.5V16.892H361.323V24.124H342.315V35.324H359.659V42.556H342.315V61.5H334.315Z" fill="#000"/>
    <path d="M365.183 45.372C365.183 35.708 372.991 28.284 382.783 28.284C392.511 28.284 400.383 35.708 400.383 45.372C400.383 55.036 392.511 62.46 382.783 62.46C372.991 62.46 365.183 55.036 365.183 45.372ZM372.799 45.372C372.799 51.068 377.087 55.484 382.783 55.484C388.415 55.484 392.767 51.068 392.767 45.372C392.767 39.676 388.415 35.26 382.783 35.26C377.087 35.26 372.799 39.676 372.799 45.372Z"
          fill="#000"/>
    <path d="M406.779 61.5V29.244H414.395V34.044C415.931 30.716 419.387 28.604 423.995 28.604C424.827 28.604 425.979 28.732 426.299 28.796V36.22C425.403 36.028 424.315 35.9 423.099 35.9C417.787 35.9 414.395 39.228 414.395 44.54V61.5H406.779Z"
          fill="#000"/>
    <path d="M429.246 45.628V45.372C429.246 35.004 436.478 28.348 446.142 28.348C455.742 28.348 462.078 35.58 462.078 44.604C462.078 44.604 462.078 46.012 461.95 47.292H436.862C437.118 52.412 440.894 55.74 446.59 55.74C450.494 55.74 452.862 54.46 455.294 52.028L459.902 56.508C455.742 60.924 451.198 62.268 446.334 62.268C436.222 62.268 429.246 55.74 429.246 45.628ZM437.054 41.916H454.27C454.27 38.076 450.622 34.876 446.142 34.876C441.342 34.876 437.374 38.012 437.054 41.916Z"
          fill="#000"/>
    <path d="M465.595 55.804L470.523 51.644C471.867 53.82 474.875 55.676 479.035 55.676C483.451 55.676 484.795 53.82 484.795 52.156C484.795 49.468 480.955 48.828 475.963 47.036C471.227 45.308 468.027 42.876 468.027 37.948C468.027 31.74 473.275 28.284 479.419 28.284C484.795 28.284 488.379 30.332 490.619 33.148L486.331 37.692C484.987 36.092 482.811 34.876 479.291 34.876C476.859 34.876 475.387 36.028 475.387 37.756C475.387 40.188 478.075 40.508 483.515 42.492C489.467 44.604 492.155 47.42 492.155 52.092C492.155 57.66 488.123 62.332 478.907 62.332C472.187 62.332 467.579 59.644 465.595 55.804Z"
          fill="#000"/>
    <path d="M500.08 61.5V36.22H495.92V29.244H500.08V16.892H507.76V29.244H514.736V36.22H507.76V61.5H500.08Z"
          fill="#000"/>
    <defs>
        <linearGradient id="paint0_linear_18_387" x1="154.398" y1="63.3646" x2="136.5" y2="15.6354"
                        gradientUnits="userSpaceOnUse">
            <stop stop-color="#FFDE9F"/>
            <stop offset="0.343685" stop-color="#FFC148"/>
            <stop offset="1" stop-color="white"/>
        </linearGradient>
        <linearGradient id="paint1_linear_18_387" x1="134.602" y1="63.6354" x2="130.602" y2="15.6354"
                        gradientUnits="userSpaceOnUse">
            <stop stop-color="#FFDB96"/>
            <stop offset="1" stop-color="#FFECC5"/>
        </linearGradient>
        <linearGradient id="paint2_linear_18_387" x1="154.602" y1="42.6354" x2="136.602" y2="42.6354"
                        gradientUnits="userSpaceOnUse">
            <stop offset="0.986534" stop-color="white"/>
            <stop offset="1" stop-color="#FFF8E9" stop-opacity="0"/>
        </linearGradient>
        <linearGradient id="paint3_linear_18_387" x1="129.102" y1="17.1354" x2="138.602" y2="46.6354"
                        gradientUnits="userSpaceOnUse">
            <stop offset="0.525642" stop-color="#FFEECC"/>
            <stop offset="1" stop-color="#FFEECC" stop-opacity="0"/>
        </linearGradient>
    </defs>
</svg>
