<svg viewBox="0 0 70 78" fill="none" xmlns="http://www.w3.org/2000/svg">

        <path d="M35.0001 68.64C53.9545 68.64 69.3201 53.2744 69.3201 34.32C69.3201 15.3656 53.9545 0 35.0001 0C16.0456 0 0.680054 15.3656 0.680054 34.32C0.680054 43.2429 4.08524 51.3705 9.66701 57.4741C10.3863 58.2607 10.8201 59.2749 10.8201 60.3408V73.1872C10.8201 76.1365 13.9031 78.0716 16.5591 76.7894L33.4153 68.6519C33.4251 68.6472 33.4249 68.6332 33.415 68.6288C33.4022 68.623 33.4068 68.6037 33.4208 68.6043C33.9443 68.628 34.4708 68.64 35.0001 68.64Z"
              fill="#FF5F00"/>
        <path d="M31.8695 36.5652C31.8695 38.2221 33.2127 39.5652 34.8695 39.5652H35.1304C36.7872 39.5652 38.1304 38.2221 38.1304 36.5652L38.1304 23.0869C38.1304 21.4301 36.7872 20.0869 35.1304 20.0869H34.8695C33.2127 20.0869 31.8695 21.4301 31.8695 23.0869L31.8695 36.5652Z"
              fill="white"/>
        <path d="M34.9999 47.913C36.7288 47.913 38.1304 46.5115 38.1304 44.7826C38.1304 43.0537 36.7288 41.6522 34.9999 41.6522C33.2711 41.6522 31.8695 43.0537 31.8695 44.7826C31.8695 46.5115 33.2711 47.913 34.9999 47.913Z"
              fill="white"/>
</svg>
