<svg width="100%" height="24" preserveAspectRatio="xMidYMid meet" xmlns="http://www.w3.org/2000/svg" fill="none" viewBox="0 0 116 32">
    <path fill="#000"
          d="M0 16C0 7.16 7.16 0 16 0C24.84 0 32 7.16 32 16C31.9991 19.3524 30.947 22.6201 28.9917 25.3432C27.0363 28.0664 24.2763 30.1077 21.1 31.18C20.3 31.34 20 30.84 20 30.42C20 30.2394 20.0022 29.927 20.0052 29.511C20.0111 28.6828 20.02 27.4445 20.02 26.02C20.02 24.52 19.52 23.56 18.94 23.06C22.5 22.66 26.24 21.3 26.24 15.16C26.24 13.4 25.62 11.98 24.6 10.86C24.76 10.46 25.32 8.82 24.44 6.62C24.44 6.62 23.1 6.18 20.04 8.26C18.76 7.9 17.4 7.72 16.04 7.72C14.68 7.72 13.32 7.9 12.04 8.26C8.98 6.2 7.64 6.62 7.64 6.62C6.76 8.82 7.32 10.46 7.48 10.86C6.46 11.98 5.84 13.42 5.84 15.16C5.84 21.28 9.56 22.66 13.12 23.06C12.66 23.46 12.24 24.16 12.1 25.2C11.18 25.62 8.88 26.3 7.44 23.88C7.14 23.4 6.24 22.22 4.98 22.24C3.64 22.26 4.44 23 5 23.3C5.68 23.68 6.46 25.1 6.64 25.56C6.96 26.46 8 28.18 12.02 27.44C12.02 28.3144 12.0285 29.1547 12.0344 29.7387C12.0376 30.0497 12.04 30.288 12.04 30.42C12.04 30.84 11.74 31.32 10.94 31.18C4.58 29.06 0 23.08 0 16Z"/>
    <path fill="#000"
          d="M51.032 24.288C46.112 24.288 42.152 20.64 42.152 15.648C42.152 10.656 46.112 6.98401 51.032 6.98401C53.48 6.98401 55.64 7.89601 57.248 9.50401L55.256 11.328C54.176 10.272 52.688 9.69601 51.032 9.69601C47.672 9.69601 45.128 12.264 45.128 15.648C45.128 19.056 47.672 21.576 51.032 21.576C52.616 21.576 54.008 21.048 55.04 20.136V17.064H50.384V14.4H57.872V21.144C56.312 23.064 53.84 24.288 51.032 24.288Z"/>
    <path fill="#000"
          d="M63.8892 8.78401C63.8892 9.74401 63.0972 10.488 62.1852 10.488C61.2492 10.488 60.4572 9.74401 60.4572 8.78401C60.4572 7.82401 61.2492 7.08001 62.1852 7.08001C63.0972 7.08001 63.8892 7.82401 63.8892 8.78401Z"/>
    <path fill="#000"
          d="M63.6252 11.904V24H60.7452V11.904H63.6252Z"/>
    <path fill="#000"
          d="M67.3737 24H70.2537V14.52H72.8697V11.904H70.2537V7.27201H67.3737V11.904H65.8137V14.52H67.3737V24Z"/>
    <path fill="#000"
          d="M77.8512 24H74.9952V7.27201H77.8512V13.584C78.3792 12.456 79.6752 11.664 81.3792 11.664C84.1872 11.664 85.7952 13.536 85.7952 16.512V24H82.9392V16.92C82.9392 15.288 82.0512 14.232 80.5152 14.232C78.9552 14.232 77.8512 15.384 77.8512 17.04V24Z"/>
    <path fill="#000"
          d="M88.5387 19.2C88.5387 22.656 91.0587 24.312 94.0587 24.312C97.0827 24.312 99.6267 22.632 99.6267 19.128V11.904H96.7227V18.936C96.7227 20.856 95.5947 21.672 94.0827 21.672C92.5707 21.672 91.4427 20.856 91.4427 18.96V11.904H88.5387V19.2Z"/>
    <path fill="#000"
          d="M105.297 24H102.417V7.27201H105.297V13.656C105.705 12.528 107.121 11.64 109.161 11.64C112.569 11.64 115.209 14.376 115.209 17.952C115.209 21.528 112.569 24.264 109.161 24.264C107.121 24.264 105.705 23.376 105.297 22.248V24ZM108.777 14.256C106.689 14.256 105.081 15.84 105.081 17.952C105.081 20.064 106.689 21.648 108.777 21.648C110.817 21.648 112.353 20.064 112.353 17.952C112.353 15.84 110.817 14.256 108.777 14.256Z"/>
</svg>
