<svg preserveAspectRatio="xMidYMid meet" xmlns="http://www.w3.org/2000/svg" fill="none" viewBox="0 0 512 512">
    <path fill="#fff" d="M0 0h512v512H0z"/>
    <path fill="url(#tomato)" d="M256.015 871.574c190.187 0 344.367-154.178 344.367-344.368 0-190.188-154.18-344.367-344.367-344.367-190.19 0-344.368 154.179-344.368 344.367 0 190.19 154.179 344.368 344.368 344.368Z"/>
    <path fill="#FF5F00" d="M407.201 0v113.608l-47.589-27.402-47.523 27.402V0h95.112Z"/>
    <path fill="#fff" d="M258.456 326.967s17.684-24.315 17.684-45.248c0-20.934-7.933-30.523-17.684-30.523-9.752 0-17.683 9.622-17.683 30.523 0 20.902 17.683 45.248 17.683 45.248Zm-137.272 69.074c20.933 0 45.247 17.684 45.247 17.684s-24.346 17.683-45.247 17.683c-20.902 0-30.523-7.931-30.523-17.683 0-9.751 9.589-17.684 30.523-17.684Zm274.512 35.367c-20.934 0-45.249-17.683-45.249-17.683s24.348-17.684 45.249-17.684c20.9 0 30.522 7.933 30.522 17.684 0 9.752-9.589 17.683-30.522 17.683ZM172.9 316.597c14.79 14.789 19.504 44.5 19.504 44.5s-29.71-4.714-44.501-19.503c-14.79-14.79-15.992-27.175-9.069-34.1 6.924-6.923 19.276-5.719 34.099 9.07l-.033.033Zm151.608 44.502s4.714-29.711 19.503-44.5l-.033-.033c14.825-14.791 27.21-15.962 34.1-9.07 6.924 6.925 5.721 19.308-9.068 34.099-14.792 14.79-44.502 19.504-44.502 19.504Z"/>
  <defs>
    <radialGradient id="tomato" cx="0" cy="0" r="1" gradientTransform="translate(256.015 527.206) scale(344.368)" gradientUnits="userSpaceOnUse">
      <stop stop-color="#CC0500"/>
      <stop offset="1" stop-color="#FF5F00"/>
    </radialGradient>
  </defs>
</svg>