<svg xmlns="http://www.w3.org/2000/svg" width="116" height="116" fill="none" viewBox="0 0 116 116">
  <g clip-path="url(#a)">
    <rect width="116" height="116" fill="#fff" rx="28"/>
    <path fill="url(#b)" d="M58.003 197.466c43.09 0 78.021-34.931 78.021-78.021s-34.931-78.02-78.02-78.02c-43.09 0-78.021 34.93-78.021 78.02 0 43.09 34.93 78.021 78.02 78.021Z"/>
    <path fill="color(display-p3 1 .3725 0)" d="M92.256 0v25.74l-10.781-6.21-10.767 6.208V0h21.548Z"/>
    <path fill="#fff" d="M58.556 74.078s4.007-5.508 4.007-10.251c0-4.743-1.797-6.915-4.007-6.915-2.209 0-4.006 2.18-4.006 6.915 0 4.736 4.006 10.251 4.006 10.251Zm-31.1 15.65c4.743 0 10.251 4.007 10.251 4.007s-5.516 4.006-10.251 4.006c-4.736 0-6.916-1.797-6.916-4.006 0-2.21 2.173-4.007 6.916-4.007ZM89.65 97.74c-4.743 0-10.252-4.005-10.252-4.005s5.517-4.007 10.252-4.007 6.915 1.797 6.915 4.007c0 2.209-2.172 4.006-6.915 4.006ZM39.173 71.729c3.35 3.35 4.419 10.082 4.419 10.082s-6.732-1.068-10.083-4.419c-3.35-3.35-3.623-6.156-2.054-7.725 1.568-1.569 4.367-1.296 7.725 2.055l-.007.007Zm34.348 10.082s1.068-6.73 4.42-10.082l-.008-.007c3.358-3.351 6.164-3.616 7.725-2.055 1.57 1.569 1.296 4.374-2.054 7.726-3.351 3.35-10.083 4.418-10.083 4.418Z"/>
  </g>
  <defs>
    <radialGradient id="b" cx="0" cy="0" r="1" gradientTransform="translate(58.003 119.445) scale(78.0208)" gradientUnits="userSpaceOnUse">
      <stop stop-color="color(display-p3 .8 .0196 0)"/>
      <stop offset="1" stop-color="color(display-p3 1 .3725 0)"/>
    </radialGradient>
    <clipPath id="a">
      <rect width="116" height="116" fill="#fff" rx="28"/>
    </clipPath>
  </defs>
</svg>
